<mxfile host="app.diagrams.net" modified="2024-05-14T15:13:55.902Z" agent="Mozilla/5.0 (Windows NT 10.0; Win64; x64; rv:125.0) Gecko/20100101 Firefox/125.0" version="24.4.0" etag="ZyStGCiO9PNiQRDhotrm" type="github">
  <diagram name="Страница — 1" id="m8nfVLBNb3RjLDfLUmw5">
    <mxGraphModel>
      <root>
        <mxCell id="0" />
        <mxCell id="1" parent="0" />
      </root>
    </mxGraphModel>
  </diagram>
</mxfile>
